# xmcd CD database file
#
# Track frame offsets:
#	150
#	18482
#	31643
#	49058
#	65973
#	80445
#	98283
#	115302
#	131769
#	146161
#	163946
#	181110
#
# Disc length: 2684 seconds
#
# Revision: 0
# Processed by: cddbd v1.5.2PL0 Copyright (c) Steve Scherf et al.
# Submitted via: jetAudio 7
#
DISCID=9f0a7a0c
DTITLE=アーティスト不明 - アルバム名 不明
DYEAR=1900
DGENRE=ジャンル不明
TTITLE0=長崎は今日も雨だった
TTITLE1=そして、神戸
TTITLE2=噂の女
TTITLE3=逢わずに愛して
TTITLE4=中の島ブルース
TTITLE5=西海ブルース
TTITLE6=恋唄
TTITLE7=雨のしのび逢い
TTITLE8=北ホテル
TTITLE9=東京砂漠
TTITLE10=この愛に生きて
TTITLE11=さようならの彼方へ
EXTD=
EXTT0=
EXTT1=
EXTT2=
EXTT3=
EXTT4=
EXTT5=
EXTT6=
EXTT7=
EXTT8=
EXTT9=
EXTT10=
EXTT11=
PLAYORDER=
